HIERARCHY
ROOT joint_Root
{
	OFFSET 0.0 0.0 0.0
	CHANNELS 6 Xposition Yposition Zposition Zrotation Xrotation Yrotation 
	JOINT Hips
	{
		OFFSET 4.5925 91.4895 -427.239
		CHANNELS 6 Xposition Yposition Zposition Zrotation Xrotation Yrotation 
		JOINT Spine
		{
			OFFSET 15.7357 0.0 0.0
			CHANNELS 6 Xposition Yposition Zposition Zrotation Xrotation Yrotation 
			JOINT Chest
			{
				OFFSET 8.98455 -0.406207 0.0
				CHANNELS 6 Xposition Yposition Zposition Zrotation Xrotation Yrotation 
				JOINT Neck
				{
					OFFSET 16.3773 0.0 0.0
					CHANNELS 6 Xposition Yposition Zposition Zrotation Xrotation Yrotation 
					JOINT Head
					{
						OFFSET 6.45672 0.0 0.0
						CHANNELS 6 Xposition Yposition Zposition Zrotation Xrotation Yrotation 
						End Site
						{
							OFFSET 0.0 0.0 0.0
						}
					}
				}
				JOINT Shoulder_L
				{
					OFFSET 12.9942 -0.242716 4.98039
					CHANNELS 6 Xposition Yposition Zposition Zrotation Xrotation Yrotation 
					JOINT UpperArm_L
					{
						OFFSET 5.34809 0.0 0.0
						CHANNELS 6 Xposition Yposition Zposition Zrotation Xrotation Yrotation 
						JOINT LowerArm_L
						{
							OFFSET 24.3286 1.87007e-05 0.0
							CHANNELS 6 Xposition Yposition Zposition Zrotation Xrotation Yrotation 
							JOINT Hand_L
							{
								OFFSET 22.2916 0.0 0.0
								CHANNELS 6 Xposition Yposition Zposition Zrotation Xrotation Yrotation 
								End Site
								{
									OFFSET 0.0 0.0 0.0
								}
							}
						}
					}
				}
				JOINT Shoulder_R
				{
					OFFSET 12.9945 -0.242716 -4.98039
					CHANNELS 6 Xposition Yposition Zposition Zrotation Xrotation Yrotation 
					JOINT UpperArm_R
					{
						OFFSET -5.34813 0.0 0.0
						CHANNELS 6 Xposition Yposition Zposition Zrotation Xrotation Yrotation 
						JOINT LowerArm_R
						{
							OFFSET -24.3289 0.000322201 0.0
							CHANNELS 6 Xposition Yposition Zposition Zrotation Xrotation Yrotation 
							JOINT Hand_R
							{
								OFFSET -22.2915 -0.000108084 0.0
								CHANNELS 6 Xposition Yposition Zposition Zrotation Xrotation Yrotation 
								End Site
								{
									OFFSET 0.0 0.0 0.0
								}
							}
						}
					}
				}
			}
		}
		JOINT UpperLeg_L
		{
			OFFSET -2.19248 -6.46944 0.0
			CHANNELS 6 Xposition Yposition Zposition Zrotation Xrotation Yrotation 
			JOINT LowerLeg_L
			{
				OFFSET 39.0811 0.0 -1.23785e-05
				CHANNELS 6 Xposition Yposition Zposition Zrotation Xrotation Yrotation 
				JOINT Foot_L
				{
					OFFSET 40.9854 0.0 -1.26872e-05
					CHANNELS 6 Xposition Yposition Zposition Zrotation Xrotation Yrotation 
					JOINT Toes_L
					{
						OFFSET 11.7543 0.0 0.0
						CHANNELS 6 Xposition Yposition Zposition Zrotation Xrotation Yrotation 
						End Site
						{
							OFFSET 0.0 0.0 0.0
						}
					}
				}
			}
		}
		JOINT UpperLeg_R
		{
			OFFSET -2.19251 6.46944 0.0
			CHANNELS 6 Xposition Yposition Zposition Zrotation Xrotation Yrotation 
			JOINT LowerLeg_R
			{
				OFFSET -39.0811 -0.00228153 -0.0401928
				CHANNELS 6 Xposition Yposition Zposition Zrotation Xrotation Yrotation 
				JOINT Foot_R
				{
					OFFSET -40.9854 0.0 0.0
					CHANNELS 6 Xposition Yposition Zposition Zrotation Xrotation Yrotation 
					JOINT Toes_R
					{
						OFFSET -11.7543 0.0 0.0
						CHANNELS 6 Xposition Yposition Zposition Zrotation Xrotation Yrotation 
						End Site
						{
							OFFSET 0.0 0.0 0.0
						}
					}
				}
			}
		}
	}
}
MOTION
Frames:	4
Frame Time:	0.0333333
0.000000 0.000000 0.000000 0.000000 0.000000 -0.000000 -1.059860 85.630600 -1.905380 88.004500 -7.873250 9.007710 15.735700 0.000005 -0.000001 84.789800 81.212600 -83.049800 8.984550 -0.406207 -0.000000 9.764950 -1.556000 3.610410 16.377300 -0.000001 -0.000001 -2.791940 -0.538804 1.530090 6.456720 -0.000001 -0.000000 -9.969910 3.108210 -1.076610 12.994200 -0.242716 4.980390 -91.184600 4.064170 -73.735400 5.348090 -0.000007 -0.000001 -59.621000 36.879400 -12.641400 24.328600 0.000019 0.000005 8.276800 14.442900 -30.253400 22.291600 -0.000001 0.000005 14.475400 5.318330 -0.447205 12.994500 -0.242716 -4.980390 88.097000 10.439800 -79.609500 -5.348130 -0.000001 -0.000004 -61.111300 -2.776080 -20.975800 -24.328900 0.000322 -0.000009 -3.270370 -18.367400 -10.275200 -22.291500 -0.000108 -0.000004 16.348600 5.203050 2.649220 -2.192480 -6.469440 -0.000000 -173.041000 -13.280600 -12.780100 39.081100 -0.000007 -0.000012 -0.429817 0.327757 52.673700 40.985400 -0.000006 -0.000013 -0.747950 1.778390 -80.164600 11.754300 -0.000000 0.000003 -0.000391 -0.003247 -16.697400 -2.192510 6.469440 -0.000001 179.544000 11.067000 166.775000 -39.081100 -0.002282 -0.040193 0.056112 -0.041431 51.917700 -40.985400 0.000008 0.000006 7.953100 5.407340 -80.289700 -11.754300 -0.000006 -0.000006 -0.057488 -0.070959 -16.639400
0.000000 0.000000 0.000000 0.000000 0.000000 -0.000000 -1.640660 86.410900 -1.261070 87.569800 -6.604140 9.008200 15.735700 0.000005 -0.000001 83.762700 81.911100 -82.613000 8.984550 -0.406207 -0.000000 8.337470 -1.743860 2.424380 16.377300 -0.000001 -0.000001 -1.907630 -0.953167 1.235450 6.456720 -0.000001 -0.000000 -9.001400 1.940270 -0.208882 12.994200 -0.242716 4.980390 -91.041000 3.510250 -73.470400 5.348090 -0.000007 -0.000001 -60.997500 34.277900 -11.508900 24.328600 0.000019 0.000005 8.924120 16.554500 -28.859600 22.291600 -0.000001 0.000005 15.352200 5.298870 0.103208 12.994500 -0.242716 -4.980390 88.224500 9.232590 -79.064800 -5.348130 -0.000001 -0.000004 -57.845500 -10.991200 -23.054700 -24.328900 0.000322 -0.000009 -2.418500 -19.111700 -7.347260 -22.291500 -0.000108 -0.000004 15.666600 5.144760 4.066980 -2.192480 -6.469440 -0.000000 -172.163000 -12.703100 -11.090600 39.081100 -0.000007 -0.000012 -0.395649 0.331338 50.056300 40.985400 -0.000006 -0.000013 -0.860677 2.734230 -79.186700 11.754300 -0.000000 0.000003 -0.000378 -0.003158 -16.694300 -2.192510 6.469440 -0.000001 -179.939000 12.165700 168.896000 -39.081100 -0.002282 -0.040193 0.055696 -0.045490 49.062100 -40.985400 0.000008 0.000006 7.893490 5.303060 -79.243300 -11.754300 -0.000006 -0.000006 -0.202279 -0.249128 -16.792200
0.000000 0.000000 0.000000 0.000000 0.000000 -0.000000 -2.209850 87.800700 -0.550887 87.354600 -4.719150 8.419570 15.735700 0.000005 -0.000001 80.373900 82.909200 -80.103000 8.984550 -0.406207 -0.000000 6.225690 -2.368340 0.670187 16.377300 -0.000001 -0.000001 -0.530293 -1.450150 0.939335 6.456720 -0.000001 -0.000000 -7.968040 0.643189 1.206630 12.994200 -0.242716 4.980390 -90.772600 2.519730 -72.945400 5.348090 -0.000007 -0.000001 -62.235800 32.547100 -10.619800 24.328600 0.000019 0.000005 7.528340 15.823200 -25.856100 22.291600 -0.000001 0.000005 15.343100 5.251200 1.401430 12.994500 -0.242716 -4.980390 88.526600 7.347410 -78.627600 -5.348130 -0.000001 -0.000004 -54.726700 -20.979200 -26.291400 -24.328900 0.000322 -0.000009 -1.555400 -18.883200 -4.793230 -22.291500 -0.000108 -0.000004 16.828100 5.088200 5.377020 -2.192480 -6.469440 -0.000000 -171.946000 -11.020600 -8.994280 39.081100 -0.000007 -0.000012 -0.356464 0.356484 44.999200 40.985400 -0.000006 -0.000013 -1.278830 3.080870 -76.965900 11.754300 -0.000000 0.000003 -0.000319 -0.002740 -16.679400 -2.192510 6.469440 -0.000001 -179.492000 13.302500 171.565000 -39.081100 -0.002282 -0.040193 0.053018 -0.051756 43.868000 -40.985400 0.000008 0.000006 7.557750 4.888180 -76.927300 -11.754300 -0.000006 -0.000006 -0.280799 -0.348045 -17.107600
0.000000 0.000000 0.000000 0.000000 0.000000 -0.000000 -2.612140 89.118300 -0.005500 87.562000 -3.182260 7.142660 15.735700 0.000005 -0.000001 76.850000 84.120900 -77.538200 8.984550 -0.406207 -0.000000 3.671610 -2.646940 -1.290250 16.377300 -0.000001 -0.000001 1.169520 -2.001000 0.791354 6.456720 -0.000001 -0.000000 -7.299240 -0.399350 2.703890 12.994200 -0.242716 4.980390 -90.477200 1.492810 -72.270400 5.348090 -0.000007 -0.000001 -62.777800 32.278100 -10.508700 24.328600 0.000019 0.000005 5.908920 14.700300 -22.188600 22.291600 -0.000001 0.000005 14.217000 5.237380 1.762690 12.994500 -0.242716 -4.980390 89.019000 4.700180 -78.195600 -5.348130 -0.000001 -0.000004 -51.609800 -31.501800 -31.714900 -24.328900 0.000322 -0.000009 -1.275940 -22.454800 -3.335140 -22.291500 -0.000108 -0.000004 18.700100 5.048110 6.278740 -2.192480 -6.469440 -0.000000 -172.381000 -9.764480 -7.511400 39.081100 -0.000007 -0.000012 -0.299091 0.362312 39.540500 40.985400 -0.000006 -0.000013 -1.648070 3.156790 -74.442900 11.754300 -0.000000 0.000003 -0.000243 -0.002178 -16.659300 -2.192510 6.469440 -0.000001 -179.392000 14.470700 173.319000 -39.081100 -0.002282 -0.040193 0.045913 -0.053385 38.609200 -40.985400 0.000008 0.000006 7.231410 4.979010 -74.401500 -11.754300 -0.000006 -0.000006 -0.331993 -0.412694 -17.441600
